PathFileType	4	(X/Y/Z)	 2.5Hzlow3min.trc
DataRate	CameraRate	NumFrames	NumMarkers	Units	OrigDataRate	OrigDataStartFrame	OrigNumFrames
200	200	8	43	m	200	376	1000
Frame#	Time	C7			LSH			RSH			MAN			RASI			LASI			HIPR			HIPL			RPSI			LPSI			COX			RTHI1			RTHI2			RTHI3			RTHI4			RLKN			RMKN			RSHA1			RSHA2			RSHA3			RSHA4			RLMAL			RMMAL			RHEEL			RMET5			RMET1			RTOE			LTHI1			LTHI2			LTHI3			LTHI4			LLKN			LMKN			LSHA1			LSHA2			LSHA3			LSHA4			LLMAL			LMMAL			LHEEL			LMET5			LMET1			LTOE			
		X1	Y1	Z1	X2	Y2	Z2	X3	Y3	Z3	X4	Y4	Z4	X5	Y5	Z5	X6	Y6	Z6	X7	Y7	Z7	X8	Y8	Z8	X9	Y9	Z9	X10	Y10	Z10	X11	Y11	Z11	X12	Y12	Z12	X13	Y13	Z13	X14	Y14	Z14	X15	Y15	Z15	X16	Y16	Z16	X17	Y17	Z17	X18	Y18	Z18	X19	Y19	Z19	X20	Y20	Z20	X21	Y21	Z21	X22	Y22	Z22	X23	Y23	Z23	X24	Y24	Z24	X25	Y25	Z25	X26	Y26	Z26	X27	Y27	Z27	X28	Y28	Z28	X29	Y29	Z29	X30	Y30	Z30	X31	Y31	Z31	X32	Y32	Z32	X33	Y33	Z33	X34	Y34	Z34	X35	Y35	Z35	X36	Y36	Z36	X37	Y37	Z37	X38	Y38	Z38	X39	Y39	Z39	X40	Y40	Z40	X41	Y41	Z41	X42	Y42	Z42	X43	Y43	Z43	
376	1.8800	-0.258241	1.511995	-0.551491	-0.201332	1.480809	-0.750577	-0.178164	1.477833	-0.350059	-0.119636	1.446511	-0.551763	-0.171387	0.986703	-0.425193	-0.174894	0.994140	-0.689399	-0.245363	1.059355	-0.383914	-0.224776	1.048505	-0.724234	-0.351511	1.025210	-0.499484	-0.349308	1.029976	-0.600727	-0.353795	1.023947	-0.554389	-0.246787	0.770718	-0.362752	-0.241650	0.709630	-0.365161	-0.170675	0.723484	-0.357413	-0.182797	0.781942	-0.357299	-0.206612	0.458407	-0.378081	-0.198126	0.454935	-0.509428	-0.329374	0.323243	-0.387316	-0.342522	0.283687	-0.400503	-0.289239	0.264348	-0.377491	-0.279903	0.302782	-0.370560	-0.377859	0.093226	-0.402300	-0.340099	0.097554	-0.493940	-0.431771	0.075631	-0.446406	-0.274406	0.033739	-0.362527	-0.217565	0.047681	-0.445423	-0.185842	0.037800	-0.438964	-0.274923	0.773754	-0.738928	-0.257618	0.714914	-0.746100	-0.197783	0.728960	-0.765530	-0.206603	0.788986	-0.761378	-0.214446	0.477778	-0.744330	-0.186912	0.468066	-0.614730	-0.332347	0.297540	-0.741895	-0.351127	0.262844	-0.731655	-0.295713	0.237624	-0.736851	-0.282112	0.278106	-0.747167	-0.379862	0.098530	-0.731686	-0.360924	0.094476	-0.639816	-0.439157	0.083157	-0.690237	-0.278489	0.037372	-0.762712	-0.228258	0.048384	-0.679338	-0.200422	0.038120	-0.683762	
377	1.8850	-0.258459	1.513601	-0.551504	-0.201419	1.482682	-0.750576	-0.178395	1.479714	-0.350040	-0.119735	1.448328	-0.551788	-0.170455	0.988423	-0.425282	-0.174121	0.995739	-0.689202	-0.245060	1.062081	-0.383982	-0.224127	1.051088	-0.724057	-0.350614	1.026885	-0.499425	-0.348512	1.031542	-0.600710	-0.352982	1.025537	-0.554342	-0.245953	0.772324	-0.362770	-0.240911	0.711219	-0.365236	-0.169899	0.724959	-0.357708	-0.181928	0.783429	-0.357516	-0.206468	0.459901	-0.378280	-0.197467	0.456036	-0.509663	-0.329178	0.324610	-0.387424	-0.342336	0.284996	-0.400585	-0.288984	0.265740	-0.377615	-0.279387	0.304083	-0.371135	-0.377369	0.094412	-0.402202	-0.339605	0.098702	-0.493820	-0.431268	0.077171	-0.446344	-0.274308	0.033821	-0.362828	-0.217424	0.047625	-0.445470	-0.185786	0.037796	-0.438998	-0.274836	0.775303	-0.738386	-0.257750	0.716381	-0.745435	-0.197875	0.730178	-0.764914	-0.206476	0.790241	-0.760880	-0.214451	0.479130	-0.743348	-0.187777	0.469813	-0.613772	-0.332733	0.298509	-0.741100	-0.351419	0.263762	-0.730866	-0.295934	0.238686	-0.736146	-0.282469	0.279213	-0.746434	-0.379693	0.099387	-0.731170	-0.360481	0.095135	-0.639382	-0.438796	0.084025	-0.689537	-0.278458	0.037527	-0.762295	-0.228061	0.048345	-0.679247	-0.200281	0.038100	-0.683809	
378	1.8900	-0.258707	1.515662	-0.551478	-0.201542	1.485061	-0.750546	-0.178647	1.482068	-0.350019	-0.119857	1.450606	-0.551799	-0.169426	0.990629	-0.425393	-0.173312	0.997813	-0.689046	-0.244251	1.065184	-0.384008	-0.223260	1.054146	-0.723868	-0.349646	1.028954	-0.499333	-0.347646	1.033492	-0.600659	-0.352102	1.027519	-0.554264	-0.245102	0.774380	-0.362772	-0.240188	0.713258	-0.365291	-0.169131	0.726842	-0.357976	-0.181037	0.785332	-0.357713	-0.206457	0.461844	-0.378415	-0.197074	0.457658	-0.509874	-0.329044	0.326334	-0.387414	-0.342173	0.286678	-0.400506	-0.288760	0.267509	-0.377622	-0.278994	0.305787	-0.371484	-0.376861	0.095901	-0.402026	-0.339076	0.100163	-0.493537	-0.430665	0.079033	-0.446102	-0.274149	0.033939	-0.363077	-0.217318	0.047564	-0.445482	-0.185759	0.037794	-0.439031	-0.274682	0.777296	-0.737915	-0.257835	0.718286	-0.744842	-0.197892	0.731810	-0.764301	-0.206250	0.791907	-0.760365	-0.214596	0.480911	-0.742412	-0.188657	0.471721	-0.612957	-0.333134	0.299818	-0.740473	-0.351717	0.265001	-0.730251	-0.296151	0.240072	-0.735586	-0.282825	0.280673	-0.745849	-0.379437	0.100521	-0.730848	-0.360004	0.096109	-0.639137	-0.438349	0.085228	-0.689056	-0.278374	0.037706	-0.761905	-0.227882	0.048296	-0.679177	-0.200170	0.038085	-0.683824	
379	1.8950	-0.258989	1.518164	-0.551424	-0.201703	1.487915	-0.750489	-0.178932	1.484882	-0.349994	-0.119996	1.453319	-0.551792	-0.168312	0.993296	-0.425510	-0.172475	1.000332	-0.688932	-0.242977	1.068590	-0.383978	-0.222212	1.057596	-0.723687	-0.348607	1.031402	-0.499205	-0.346718	1.035811	-0.600572	-0.351152	1.029872	-0.554146	-0.244249	0.776861	-0.362752	-0.239501	0.715720	-0.365314	-0.168394	0.729107	-0.358199	-0.180147	0.787625	-0.357874	-0.206607	0.464211	-0.378471	-0.197044	0.459797	-0.510044	-0.328992	0.328394	-0.387306	-0.342060	0.288691	-0.400290	-0.288591	0.269651	-0.377487	-0.278776	0.307893	-0.371565	-0.376330	0.097647	-0.401714	-0.338515	0.101913	-0.493104	-0.429964	0.081196	-0.445710	-0.273931	0.034080	-0.363286	-0.217216	0.047531	-0.445454	-0.185753	0.037786	-0.439064	-0.274472	0.779702	-0.737526	-0.257878	0.720597	-0.744340	-0.197840	0.733834	-0.763713	-0.205934	0.793966	-0.759851	-0.214972	0.483124	-0.741555	-0.189612	0.473786	-0.612277	-0.333563	0.301434	-0.740018	-0.352034	0.266521	-0.729811	-0.296360	0.241782	-0.735183	-0.283194	0.282464	-0.745421	-0.379100	0.101919	-0.730717	-0.359501	0.097384	-0.639082	-0.437818	0.086761	-0.688786	-0.278239	0.037880	-0.761571	-0.227723	0.048247	-0.679134	-0.200102	0.038081	-0.683819	
380	1.9000	-0.259307	1.521079	-0.551352	-0.201905	1.491199	-0.750406	-0.179234	1.488111	-0.349972	-0.120157	1.456425	-0.551771	-0.167131	0.996380	-0.425627	-0.171615	1.003262	-0.688860	-0.241305	1.072291	-0.383901	-0.221027	1.061378	-0.723516	-0.347507	1.034212	-0.499040	-0.345730	1.038481	-0.600446	-0.350138	1.032576	-0.553995	-0.243411	0.779727	-0.362703	-0.238865	0.718570	-0.365299	-0.167701	0.731717	-0.358366	-0.179271	0.790277	-0.357998	-0.206951	0.466974	-0.378453	-0.197417	0.462417	-0.510161	-0.329016	0.330757	-0.387098	-0.341999	0.290992	-0.399961	-0.288481	0.272130	-0.377213	-0.278724	0.310373	-0.371397	-0.375766	0.099654	-0.401270	-0.337898	0.103915	-0.492542	-0.429167	0.083620	-0.445189	-0.273660	0.034258	-0.363477	-0.217146	0.047500	-0.445413	-0.185778	0.037767	-0.439101	-0.274211	0.782495	-0.737228	-0.257879	0.723296	-0.743953	-0.197727	0.736231	-0.763167	-0.205540	0.796397	-0.759356	-0.215632	0.485767	-0.740831	-0.190694	0.476040	-0.611727	-0.334018	0.303343	-0.739730	-0.352360	0.268324	-0.729538	-0.296566	0.243795	-0.734943	-0.283579	0.284565	-0.745156	-0.378685	0.103560	-0.730761	-0.358960	0.098950	-0.639210	-0.437203	0.088593	-0.688706	-0.278043	0.038074	-0.761298	-0.227606	0.048199	-0.679135	-0.200061	0.038083	-0.683808	
381	1.9050	-0.259661	1.524354	-0.551270	-0.202156	1.494875	-0.750301	-0.179552	1.491709	-0.349961	-0.120333	1.459894	-0.551736	-0.165898	0.999839	-0.425742	-0.170740	1.006549	-0.688821	-0.239307	1.076275	-0.383781	-0.219746	1.065450	-0.723348	-0.346343	1.037359	-0.498845	-0.344684	1.041480	-0.600289	-0.349066	1.035619	-0.553815	-0.242603	0.782948	-0.362621	-0.238292	0.721774	-0.365232	-0.167066	0.734647	-0.358469	-0.178422	0.793252	-0.358075	-0.207513	0.470099	-0.378364	-0.198189	0.465496	-0.510213	-0.329131	0.333364	-0.386845	-0.341990	0.293539	-0.399544	-0.288424	0.274888	-0.376826	-0.278801	0.313171	-0.371021	-0.375166	0.101959	-0.400724	-0.337204	0.106151	-0.491877	-0.428261	0.086273	-0.444561	-0.273372	0.034482	-0.363694	-0.217117	0.047434	-0.445354	-0.185799	0.037773	-0.439142	-0.273906	0.785634	-0.737029	-0.257841	0.726355	-0.743685	-0.197556	0.738989	-0.762676	-0.205086	0.799182	-0.758900	-0.216617	0.488801	-0.740273	-0.191948	0.478497	-0.611286	-0.334501	0.305516	-0.739591	-0.352691	0.270393	-0.729414	-0.296770	0.246081	-0.734856	-0.283978	0.286967	-0.745057	-0.378195	0.105433	-0.730960	-0.358359	0.100778	-0.639509	-0.436498	0.090701	-0.688784	-0.277797	0.038296	-0.761079	-0.227502	0.048165	-0.679176	-0.200049	0.038087	-0.683797	
382	1.9100	-0.260047	1.527962	-0.551186	-0.202460	1.498893	-0.750173	-0.179889	1.495648	-0.349959	-0.120510	1.463735	-0.551680	-0.164640	1.003622	-0.425854	-0.169852	1.010158	-0.688812	-0.237056	1.080532	-0.383622	-0.218415	1.069774	-0.723178	-0.345130	1.040821	-0.498623	-0.343586	1.044791	-0.600099	-0.347941	1.038976	-0.553604	-0.241834	0.786476	-0.362500	-0.237787	0.725284	-0.365104	-0.166495	0.737853	-0.358504	-0.177606	0.796512	-0.358103	-0.208239	0.473534	-0.378166	-0.199316	0.468963	-0.510182	-0.329301	0.336177	-0.386501	-0.342024	0.296282	-0.399059	-0.288411	0.277874	-0.376333	-0.278965	0.316232	-0.370488	-0.374473	0.104495	-0.400021	-0.336406	0.108591	-0.491107	-0.427279	0.089168	-0.443852	-0.272967	0.034795	-0.363854	-0.217062	0.047385	-0.445255	-0.185829	0.037780	-0.439183	-0.273571	0.789094	-0.736935	-0.257769	0.729741	-0.743541	-0.197343	0.742075	-0.762258	-0.204591	0.802289	-0.758494	-0.217919	0.492157	-0.739903	-0.193381	0.481216	-0.610950	-0.335001	0.307940	-0.739578	-0.353018	0.272704	-0.729417	-0.296964	0.248637	-0.734915	-0.284391	0.289633	-0.745109	-0.377624	0.107542	-0.731291	-0.357679	0.102847	-0.639960	-0.435689	0.093078	-0.688994	-0.277507	0.038568	-0.760899	-0.227411	0.048125	-0.679264	-0.200062	0.038091	-0.683783	
383	1.9150	-0.260461	1.531857	-0.551105	-0.202816	1.503211	-0.750021	-0.180251	1.499896	-0.349965	-0.120767	1.467840	-0.551637	-0.163370	1.007686	-0.425951	-0.168959	1.014038	-0.688818	-0.234618	1.085034	-0.383450	-0.217073	1.074308	-0.722996	-0.343866	1.044587	-0.498378	-0.342444	1.048396	-0.599883	-0.346765	1.042633	-0.553367	-0.241103	0.790275	-0.362340	-0.237343	0.729058	-0.364923	-0.165987	0.741306	-0.358472	-0.176827	0.800017	-0.358079	-0.209119	0.477237	-0.377873	-0.200729	0.472724	-0.510058	-0.329519	0.339165	-0.386075	-0.342074	0.299195	-0.398476	-0.288410	0.281080	-0.375718	-0.279154	0.319495	-0.369881	-0.373681	0.107233	-0.399192	-0.335490	0.111206	-0.490246	-0.426206	0.092269	-0.443060	-0.272540	0.035137	-0.364022	-0.216991	0.047345	-0.445144	-0.185861	0.037792	-0.439232	-0.273203	0.792840	-0.736920	-0.257672	0.733418	-0.743516	-0.197097	0.745455	-0.761914	-0.204063	0.805693	-0.758142	-0.219514	0.495774	-0.739720	-0.194982	0.484222	-0.610701	-0.335510	0.310591	-0.739656	-0.353328	0.275243	-0.729514	-0.297143	0.251461	-0.735115	-0.284811	0.292551	-0.745291	-0.376964	0.109861	-0.731731	-0.356906	0.105153	-0.640543	-0.434771	0.095681	-0.689286	-0.277172	0.038883	-0.760753	-0.227322	0.048098	-0.679393	-0.200088	0.038101	-0.683788	
